<?xml version="1.0" encoding="UTF-8" standalone="no"?>
<!DOCTYPE svg PUBLIC "-//W3C//DTD SVG 1.1//EN" "http://www.w3.org/Graphics/SVG/1.1/DTD/svg11.dtd">
<svg width="100%" height="100%" viewBox="0 0 1024 1024" version="1.1" xmlns="http://www.w3.org/2000/svg" xmlns:xlink="http://www.w3.org/1999/xlink" xml:space="preserve" xmlns:serif="http://www.serif.com/" style="fill-rule:evenodd;clip-rule:evenodd;stroke-linejoin:round;stroke-miterlimit:2;">
    <g transform="matrix(1.39576,0,0,1.39576,777.893,53.2769)">
        <path d="M0,0C2.279,1.723 4.424,3.526 6.555,5.43C7.171,5.953 7.787,6.476 8.422,7.016C17.674,15.445 23.342,27.524 24.023,39.98C24.058,41.901 24.068,43.822 24.055,45.742C24.048,46.752 24.042,47.762 24.035,48.802C23.712,62.02 18.982,71.271 10.555,81.43C10.034,82.087 9.513,82.745 8.977,83.422C1.424,92.004 -10.624,95.988 -21.445,98.43C-21.151,99.244 -21.151,99.244 -20.85,100.075C-9.952,130.346 -3.848,164.784 -17.32,195.492C-17.771,196.37 -18.223,197.248 -18.688,198.152C-19.687,200.384 -19.687,200.384 -18.758,202.418C-18.325,203.082 -17.892,203.746 -17.445,204.43C-16.769,205.64 -16.769,205.64 -16.078,206.875C-15.581,207.759 -15.083,208.644 -14.57,209.555C-6.319,224.668 -2.209,240.872 -6.933,257.843C-11.984,273.877 -20.71,286.651 -34.445,296.43C-35.105,296.76 -35.765,297.09 -36.445,297.43C-37.321,299.694 -37.321,299.694 -38.031,302.461C-38.323,303.5 -38.614,304.539 -38.914,305.609C-39.213,306.705 -39.512,307.801 -39.82,308.93C-41.861,316.387 -44.043,323.47 -47.445,330.43C-46.662,330.471 -45.878,330.512 -45.07,330.555C-39.968,331.786 -35.649,334.297 -31.445,337.43C-29.55,339.443 -24.47,345.018 -23.945,345.805C-23.148,346.999 -23.095,346.961 -22.227,348.141C-16.606,358.519 -15.807,368.646 -15.695,380.18C-15.667,381.667 -15.637,383.154 -15.605,384.641C-15.533,388.237 -15.482,391.833 -15.445,395.43C26.018,418.575 68.886,421.178 115.555,418.43C116.042,425.41 111.924,440.976 111.599,442.256C101.919,479.346 56.883,543.759 55.555,545.43C51.499,544.162 47.799,542.661 44.027,540.707C42.995,540.173 7.5,520.125 6.441,519.453C-0.588,514.876 -16.822,502.355 -18.313,501.191C-26.244,494.764 -41.466,479.667 -42.252,478.889C-51.715,469.501 -60.072,459.457 -68.008,448.742C-68.54,448.029 -69.071,447.315 -69.619,446.58C-70.897,444.865 -72.171,443.148 -73.445,441.43C-74.368,441.863 -74.368,441.863 -75.309,442.305C-76.117,442.676 -82.445,445.43 -85.445,445.43C-85.089,464.92 -84.062,484.088 -81.445,503.43C-81.34,504.241 -81.235,505.052 -81.126,505.888C-78.361,526.66 -72.816,547.118 -65.203,566.612C-64.829,567.583 -64.455,568.554 -64.07,569.555C-63.733,570.403 -63.395,571.251 -63.047,572.125C-62.359,574.759 -62.278,575.968 -63.445,578.43C-65.333,579.735 -65.333,579.735 -67.844,580.875C-68.784,581.307 -69.725,581.739 -70.694,582.185C-72.242,582.863 -72.242,582.863 -73.82,583.555C-74.889,584.032 -75.957,584.509 -77.058,585.001C-107.418,598.34 -140.231,609.401 -173.445,612.43C-184.457,576.039 -192.135,507.81 -174.445,472.43C-175.341,472.498 -176.236,472.567 -177.159,472.637C-205.383,474.617 -234.71,475.631 -262.445,469.43C-263.515,469.199 -264.585,468.969 -265.687,468.732C-292.131,462.976 -316.602,454.161 -339.445,439.43C-339.728,440.313 -340.01,441.196 -340.301,442.105C-341.313,445.044 -342.476,447.79 -343.758,450.617C-346.007,455.961 -347.655,461.335 -349.133,466.93C-349.335,467.688 -349.537,468.446 -349.745,469.227C-352.686,480.738 -353.809,491.797 -353.758,503.68C-353.755,504.365 -353.753,505.049 -353.75,505.755C-353.693,515.959 -353.33,525.571 -350.445,535.43C-350.236,536.16 -350.026,536.891 -349.81,537.644C-344.383,556.029 -335.578,573.587 -324.188,589.004C-322.683,591.099 -321.509,593.088 -320.445,595.43C-319.785,595.43 -316.824,597.109 -315.008,599.305C-312.861,601.892 -311.278,603.542 -308.445,605.43L-308.445,607.43C-307.906,607.666 -307.368,607.901 -306.813,608.145C-303.803,609.778 -301.237,611.865 -298.57,613.992C-279.706,628.653 -258.593,639.362 -235.445,645.43C-234.684,645.632 -233.922,645.834 -233.138,646.042C-222.598,648.774 -212.357,650.202 -201.445,650.43C-200.605,650.455 -199.764,650.481 -198.897,650.508C-186.041,650.878 -174.023,650.086 -161.445,647.43C-160.413,647.229 -160.413,647.229 -159.359,647.024C-121.705,639.697 -87.202,618.098 -65.148,586.52C-57.337,574.929 -51.081,562.61 -46.445,549.43C-46.124,548.556 -45.803,547.682 -45.473,546.781C-42.832,539.321 -41.322,532.001 -40.195,524.18C-40.023,523.041 -39.85,521.903 -39.672,520.73C-39.254,517.965 -35.231,483.043 -34.831,480.275C-31.536,482.663 -10.646,489.683 -10.134,503.467C-9.821,511.881 -18.801,540.884 -18.985,541.633C-26.312,570.033 -39.491,594.718 -59.438,616.211C-60.84,617.761 -62.183,619.366 -63.477,621.008C-65.234,623.169 -66.948,624.892 -69.07,626.68C-71.298,628.566 -73.467,630.451 -75.555,632.492C-98.58,654.724 -131.778,665.317 -162.445,671.43C-163.67,671.678 -164.895,671.927 -166.156,672.184C-203.002,678.325 -241.938,671.137 -275.445,655.43C-276.15,655.104 -276.854,654.777 -277.58,654.441C-290.086,648.601 -301.719,641.656 -312.488,632.984C-314.345,631.509 -316.244,630.15 -318.195,628.805C-321.285,626.618 -323.825,624.175 -326.445,621.43C-327.08,620.828 -327.714,620.226 -328.367,619.605C-335.147,613.103 -340.877,605.969 -346.445,598.43C-346.875,597.85 -347.304,597.27 -347.747,596.672C-358.089,582.498 -365.233,566.74 -370.883,550.18C-371.201,549.259 -371.519,548.339 -371.846,547.391C-376.515,533.044 -378.008,518.802 -377.883,503.805C-377.88,503.026 -377.877,502.247 -377.874,501.445C-377.71,472.983 -369.916,449.199 -358.445,423.43C-359.105,423.43 -360.617,411.374 -360.665,405.345C-360.685,403.3 -360.712,401.254 -360.747,399.209C-361.001,383.959 -346.754,353.783 -346.445,351.43C-346.315,350.437 -348.407,345.309 -349.922,342.344C-364.261,313.769 -370.251,288.334 -369.445,256.43C-370.503,256.268 -450.615,218.505 -451.694,217.994C-455.736,215.696 -458.915,212.894 -460.445,208.43C-460.906,204.282 -460.7,201.96 -458.883,198.18C-455.896,194.81 -453.775,193.657 -449.445,192.43C-444.1,192.902 -381.513,206.915 -362.445,211.43C-362.287,210.703 -354.061,185.21 -355.051,180.074C-356.246,172.062 -354.938,165.055 -352.82,157.305C-352.55,156.296 -352.279,155.288 -352,154.249C-346.634,134.802 -338.666,116.682 -321.383,104.988C-318.45,103.432 -315.641,102.433 -312.494,101.424C-302.912,98.331 -298.835,94.113 -293.445,85.43C-292.157,83.662 -290.847,81.909 -289.508,80.18C-288.963,79.453 -288.417,78.726 -287.855,77.977C-287.39,77.466 -281.183,71.133 -279.133,69.492C-276.969,67.747 -274.996,65.98 -273.027,64.008C-265.081,56.074 -256.084,50.099 -246.445,44.43C-245.701,43.968 -244.957,43.506 -244.19,43.031C-214.934,25 -176.031,14.31 -141.486,16.328C-139.329,16.435 -137.183,16.453 -135.023,16.461C-114.986,16.733 -95.728,22.538 -77.445,30.43C-77.342,29.744 -77.239,29.058 -77.133,28.352C-74.187,15.831 -66.324,6.098 -55.758,-0.883C-39.064,-10.174 -16.385,-10.522 0,0Z" style="fill:rgb(11,45,80);fill-rule:nonzero;"/>
    </g>
    <g transform="matrix(1.39576,0,0,1.39576,388.394,282.4)">
        <path d="M0,0C1.451,-0.019 1.451,-0.019 2.932,-0.038C25.376,-0.272 46.655,0.287 68.613,5.273C69.651,5.503 70.688,5.733 71.757,5.97C122.631,17.518 179.105,42.856 211.613,85.273C212.539,86.392 213.466,87.509 214.395,88.625C219.677,95.181 222.853,99.99 222.078,108.742C221.925,109.908 221.771,111.073 221.613,112.273C221.504,113.679 221.401,115.085 221.305,116.492C219.979,133.62 214.84,148.289 206.613,163.273C206.131,164.186 205.649,165.099 205.152,166.039C200.96,173.552 195.345,179.909 189.613,186.273C188.869,187.102 188.126,187.931 187.359,188.785C181.478,194.992 174.744,199.648 167.613,204.273C166.826,204.807 166.038,205.341 165.227,205.891C146.829,217.77 124.051,223.929 102.613,227.273C101.063,227.529 101.063,227.529 99.481,227.79C95.051,228.344 90.713,228.49 86.254,228.547C85.36,228.559 84.465,228.572 83.544,228.585C63.38,228.812 44.226,228.544 24.613,223.273C23.86,223.076 23.106,222.878 22.33,222.675C6.896,218.478 -7.802,211.099 -20.387,201.273C-20.966,200.825 -21.544,200.376 -22.141,199.914C-30.951,192.988 -38.147,185.586 -44.387,176.273C-44.777,175.692 -45.167,175.111 -45.569,174.512C-55.395,159.604 -61.126,143.523 -65.387,126.273C-65.634,125.305 -65.882,124.337 -66.137,123.34C-67.6,116.988 -67.588,110.769 -67.387,104.273C-64.718,105.435 -62.052,106.603 -59.387,107.773C-58.3,108.245 -58.3,108.245 -57.191,108.727C-52.06,110.988 -47.031,113.427 -42.023,115.949C-33.339,120.324 -24.584,124.542 -15.804,128.72C-13.189,129.966 -10.578,131.218 -7.967,132.471C15.664,143.806 33.063,146.326 44.457,143.531C49.573,142.276 57.24,135.261 61.613,128.273C62.028,127.619 62.443,126.964 62.871,126.289C67.063,118.492 67.021,109.198 64.625,100.816C62.952,96.615 61.279,93.104 58.441,89.563C56.613,87.273 52.028,82.936 50.637,82.134C42.706,77.744 34.244,75.983 25.488,74.023C23.816,73.639 22.144,73.254 20.472,72.868C16.079,71.857 11.682,70.863 7.284,69.874C4.639,69.279 1.995,68.681 -0.649,68.083C-9.127,66.163 -17.607,64.256 -26.09,62.359C-37.87,59.725 -49.631,57.011 -61.387,54.273C-57.815,36.86 -49.325,21.379 -37.387,8.273C-36.887,7.706 -36.386,7.139 -35.871,6.555C-31.575,2.308 -26.11,1.922 -20.387,1.273C-19.683,1.193 -18.98,1.112 -18.255,1.029C-12.161,0.371 -6.127,0.073 0,0Z" style="fill:rgb(252,253,253);fill-rule:nonzero;"/>
    </g>
    <g transform="matrix(1.39576,0,0,1.39576,304.109,666.616)">
        <path d="M0,0C3.889,1.388 7.316,3.267 10.873,5.325C42.872,23.793 81.113,33.493 118.027,33.195C119.396,33.192 120.765,33.189 122.133,33.187C125.679,33.179 129.225,33.16 132.771,33.137C136.412,33.117 140.052,33.108 143.693,33.098C150.796,33.076 157.898,33.042 165,33C164.525,36.584 164.044,40.167 163.563,43.75C163.36,45.274 163.36,45.274 163.154,46.828C163.022,47.808 162.89,48.788 162.754,49.797C162.633,50.698 162.513,51.598 162.389,52.526C162.042,54.735 161.553,56.836 161,59C156.199,91.798 158.053,125.444 163.492,157.992C163.613,158.718 163.734,159.444 163.859,160.193C164.578,164.274 165.588,168.104 167,172C201.254,166.567 233.432,157.471 265,143C267.052,142.067 269.104,141.135 271.156,140.203C272.771,139.469 274.385,138.735 276,138C275.474,133.418 274.141,129.532 272.473,125.277C264.28,104.301 258.678,81.752 256.26,59.356C256.002,57.021 255.699,54.696 255.387,52.367C253.454,36.967 253.806,21.49 254,6L255,6C254.934,6.857 254.934,6.857 254.867,7.73C254.894,16.241 259.44,21.191 264.644,27.361C266.74,29.894 268.675,32.541 270.625,35.188C274.638,40.553 278.776,45.8 283,51C283.721,51.896 284.441,52.792 285.184,53.715C286.299,55.093 286.299,55.093 287.438,56.5C288.176,57.424 288.915,58.349 289.676,59.301C291.942,62.045 291.942,62.045 294.605,64.355C298.434,67.899 300.772,70.3 301.48,75.586C301.301,79.83 300.779,83.832 300,88C299.884,88.68 299.769,89.36 299.649,90.06C293.169,126.842 270.066,161.236 240,183C210.598,203.55 176.252,212.54 140.678,212.037C139.061,212.015 137.443,211.998 135.826,211.994C102.189,211.825 66.577,196.32 40.779,175.417C38.159,173.33 35.462,171.35 32.764,169.365C30.285,167.447 28.155,165.272 26,163C24.608,161.67 24.608,161.67 23.188,160.313C21,158 21,158 21,156L19,156C5.623,140.819 -4.226,120.31 -10.375,101.188C-10.614,100.448 -10.853,99.708 -11.099,98.946C-14.506,87.76 -15.391,76.718 -15.375,65.063C-15.374,64.386 -15.374,63.71 -15.373,63.014C-15.293,41.221 -10.864,19.131 0,0Z" style="fill:rgb(252,253,253);fill-rule:nonzero;"/>
    </g>
    <g transform="matrix(1.39576,0,0,1.39576,566.77,106.778)">
        <path d="M0,0C25.943,-1.078 56.11,3.814 76.19,21.599C77.752,23.078 79.292,24.58 80.815,26.099C81.348,26.611 81.88,27.123 82.429,27.651C92.566,37.515 101.25,49.07 106.815,62.099C107.451,63.417 107.451,63.417 108.1,64.763C111.083,71.24 112.936,77.882 114.627,84.786C114.847,85.665 115.066,86.544 115.292,87.45C116.568,92.928 117.604,98.468 116.815,104.099C114.94,106.661 114.94,106.661 112.815,108.099C110.815,108.099 110.815,108.099 108.252,105.786C105.815,103.099 98.545,96.34 97.452,95.411C96.504,94.618 96.504,94.618 95.537,93.808C94.53,92.962 94.53,92.962 93.502,92.099C75.172,76.975 46.024,55.022 21.756,52.821C20.971,52.933 20.186,53.046 19.377,53.161C18.574,53.255 17.771,53.349 16.944,53.446C14.421,54.219 13.369,54.974 11.815,57.099C11.29,63.451 11.29,63.451 13.815,69.099C16.206,70.488 18.489,71.656 20.999,72.786C22.49,73.485 23.981,74.185 25.472,74.885C26.253,75.246 27.034,75.607 27.839,75.979C58.278,90.102 84.25,108.076 105.815,134.099C106.318,134.697 106.82,135.295 107.338,135.911C108.504,137.302 109.66,138.699 110.815,140.099C110.485,140.759 110.155,141.419 109.815,142.099C109.293,141.553 108.771,141.008 108.233,140.446C102.443,134.515 96.325,129.221 89.815,124.099C89.151,123.568 88.487,123.038 87.803,122.492C82.465,118.268 76.973,114.41 71.252,110.724C70.377,110.16 69.503,109.596 68.601,109.015C22.344,79.449 -35.523,59.898 -90.814,58.782C-92.127,58.751 -92.127,58.751 -93.466,58.719C-96.226,58.655 -98.987,58.595 -101.748,58.536C-103.634,58.493 -105.52,58.449 -107.406,58.405C-111.999,58.299 -116.592,58.197 -121.185,58.099C-121.185,56.099 -121.185,56.099 -119.037,53.802C-114.645,49.639 -110.224,45.516 -105.72,41.476C-104.35,40.247 -102.988,39.009 -101.626,37.771C-74.082,13.878 -35.891,1.62 0,0Z" style="fill:rgb(61,175,253);fill-rule:nonzero;"/>
    </g>
    <g transform="matrix(1.39576,0,0,1.39576,696.318,542.393)">
        <path d="M0,0C6.906,1.323 12.014,6.447 15.992,11.996C19.886,19.738 21.34,30.562 19,39C16.324,43.332 12.049,46.021 7.856,48.754C5.401,50.402 3.138,52.248 0.842,54.108C-3.531,57.621 -7.894,60.784 -13.039,63.074C-15.496,64.234 -17.751,65.636 -20.063,67.063C-23.939,69.423 -27.795,71.273 -32,73C-33.587,73.805 -35.17,74.618 -36.75,75.438C-44.395,79.295 -52.411,81.894 -60.613,84.289C-62.865,84.96 -65.088,85.684 -67.313,86.438C-70.967,87.666 -74.633,88.848 -78.313,90C-79.299,90.309 -80.285,90.619 -81.301,90.938C-90.876,93.688 -100.391,95.7 -110.25,97.125C-111.899,97.378 -111.899,97.378 -113.582,97.637C-128.208,99.789 -142.866,100.238 -157.625,100.25C-158.409,100.251 -159.194,100.251 -160.002,100.252C-172.881,100.235 -185.336,99.502 -198,97C-198.898,96.828 -199.796,96.657 -200.721,96.48C-219.44,92.82 -237.225,87.15 -254.029,78.063C-256.098,76.947 -258.181,75.861 -260.266,74.773C-261.678,74.018 -263.09,73.26 -264.5,72.5C-265.135,72.169 -265.769,71.838 -266.423,71.497C-268.364,70.423 -270.175,69.261 -272,68C-272.744,67.497 -273.488,66.994 -274.255,66.476C-277.937,63.503 -279.79,61.395 -280.508,56.628C-280.487,53.29 -280.321,50.07 -279.969,46.756C-279.752,44.704 -279.597,42.654 -279.453,40.596C-278.811,32.557 -277.245,25.4 -274,18C-270.763,19.079 -270.257,19.647 -268.25,22.223C-265.193,25.913 -261.893,28.669 -258,31.438C-257.018,32.143 -257.018,32.143 -256.017,32.863C-235.34,47.483 -212.197,56.246 -187.5,61.313C-186.724,61.472 -185.948,61.632 -185.149,61.796C-172.991,64.129 -160.71,64.239 -148.375,64.25C-147.566,64.251 -146.757,64.252 -145.924,64.253C-126.516,64.237 -107.56,63.072 -89,57C-87.045,56.527 -85.087,56.068 -83.125,55.625C-71.057,52.596 -60.149,47.766 -49.125,42.063C-48.175,41.573 -47.224,41.083 -46.245,40.578C-29.008,31.462 -9.346,17.653 0,0Z" style="fill:rgb(65,176,252);fill-rule:nonzero;"/>
    </g>
    <g transform="matrix(1.39576,0,0,1.39576,658.632,674.991)">
        <path d="M0,0C0.33,0 12.255,-4.916 12.188,-4.042C16.227,0.659 47.913,38.467 49.945,40.229C53.773,43.772 45.769,83.36 45.649,84.06C39.169,120.842 16.066,155.236 -14,177C-43.402,197.55 -77.748,206.54 -113.322,206.037C-114.939,206.015 -116.557,205.998 -118.174,205.994C-151.811,205.825 -187.423,190.32 -213.221,169.417C-215.841,167.33 -218.538,165.35 -221.236,163.365C-223.715,161.447 -225.845,159.272 -228,157C-229.392,155.67 -229.392,155.67 -230.813,154.313C-233,152 -238.096,148.016 -249.791,128.995C-249.131,128.665 -198.239,157.364 -177,163.313C-176.183,163.543 -175.367,163.774 -174.525,164.011C-159.651,167.926 -144.812,169.489 -129.466,169.336C-126.934,169.312 -124.404,169.316 -121.873,169.322C-110.798,169.302 -99.977,168.447 -89,167C-88.67,166.01 -88.34,165.02 -88,164C-87.67,164.66 -87.34,165.32 -87,166C-52.746,160.567 -20.568,151.471 11,137C13.052,136.067 15.104,135.135 17.156,134.203C18.771,133.469 20.385,132.735 22,132C21.474,127.418 20.141,123.532 18.473,119.277C10.28,98.301 4.678,75.752 2.26,53.356C2.002,51.021 1.699,48.696 1.387,46.367C-0.546,30.967 -0.194,15.49 0,0Z" style="fill:rgb(194,227,250);fill-rule:nonzero;"/>
    </g>
    <g transform="matrix(1.39576,0,0,1.39576,654.445,372.11)">
        <path d="M0,0C7.466,4.878 13.34,11.184 19,18C19.549,18.66 20.098,19.321 20.664,20.001C31.747,33.636 31.747,33.636 31.875,41.438C31.637,43.632 31.341,45.82 31,48C30.884,49.402 30.779,50.804 30.684,52.207C29.387,69.337 24.226,84.018 16,99C15.518,99.913 15.036,100.825 14.539,101.766C10.347,109.278 4.732,115.635 -1,122C-1.744,122.829 -2.488,123.658 -3.254,124.512C-9.136,130.718 -15.869,135.375 -23,140C-23.788,140.534 -24.575,141.067 -25.387,141.617C-43.784,153.497 -66.562,159.656 -88,163C-89.551,163.256 -89.551,163.256 -91.133,163.517C-95.562,164.07 -99.9,164.216 -104.359,164.273C-105.254,164.286 -106.148,164.298 -107.069,164.311C-127.233,164.538 -146.387,164.27 -166,159C-166.754,158.802 -167.507,158.605 -168.284,158.401C-181.792,154.729 -195.778,148.44 -207,140C-204.035,138.518 -202.42,139.659 -199.313,140.688C-194.41,142.242 -189.51,143.78 -184.563,145.188C-182.894,145.673 -182.894,145.673 -181.191,146.168C-142.25,155.191 -99.447,145.411 -66,125C-56.864,119.094 -45.1,111.151 -39,102L-37,102C-36.662,101.203 -36.662,101.203 -36.316,100.391C-34.916,97.848 -33.218,95.717 -31.37,93.486C-9.975,67.563 -2.888,37.388 -1.234,4.528C-1,2 -1,2 0,0Z" style="fill:rgb(194,228,251);fill-rule:nonzero;"/>
    </g>
    <g transform="matrix(1.39576,0,0,1.39576,399.788,218.289)">
        <path d="M0,0C2.617,0.018 5.233,0.021 7.85,0.02C39.028,0.083 39.028,0.083 53.7,2.581C54.941,2.781 54.941,2.781 56.208,2.986C57.863,3.257 59.517,3.533 61.17,3.816C63.216,4.166 65.264,4.496 67.313,4.823C120.788,13.971 170.197,37.473 210.161,74.163C212.481,76.285 212.481,76.285 215.239,78.343C216.333,79.265 216.333,79.265 217.45,80.206L217.45,82.206L219.45,82.206C222.033,84.639 224.209,87.46 226.45,90.206C227.564,91.565 227.564,91.565 228.7,92.952C234.189,99.934 238.165,106.96 241.45,115.206C241.868,116.225 241.868,116.225 242.294,117.264C244.965,124.875 242.376,132.114 239.485,139.237C238.45,141.206 238.45,141.206 236.45,142.206C236.182,141.623 235.914,141.04 235.637,140.44C230.305,129.283 223.523,119.877 215.048,110.956C212.893,108.675 210.845,106.355 208.825,103.956C196.365,89.72 179.644,78.746 163.45,69.206C162.839,68.841 162.229,68.476 161.599,68.099C98.807,30.719 22.582,14.676 -49.081,30.665C-51.565,31.209 -54.055,31.714 -56.55,32.206C-53.345,21.418 -49.407,11.3 -39.628,4.96C-27.898,-1.06 -12.83,-0.092 0,0Z" style="fill:rgb(61,179,253);fill-rule:nonzero;"/>
    </g>
    <g transform="matrix(1.39576,0,0,1.39576,609.78,711.281)">
        <path d="M0,0C-1.131,15.424 -2.725,30.702 -5,46C-4.47,45.818 -3.941,45.636 -3.395,45.449C-0.994,44.628 1.409,43.814 3.813,43C4.646,42.714 5.479,42.428 6.338,42.133C7.14,41.862 7.943,41.591 8.77,41.313C9.877,40.935 9.877,40.935 11.007,40.551C13,40 13,40 16,40C18.19,45.789 19.174,51.754 20.313,57.813C21.934,66.225 23.764,74.45 26.388,82.609C27.715,86.763 28.49,90.687 29,95C11.325,103.472 -14.17,115 -34,115C-34.319,112.814 -34.63,110.626 -34.938,108.438C-35.112,107.219 -35.286,106.001 -35.465,104.746C-36.986,92.327 -37.204,79.868 -37.188,67.375C-37.187,66.587 -37.187,65.8 -37.187,64.988C-37.167,52.562 -36.717,40.322 -35,28C-34.807,26.614 -34.807,26.614 -34.611,25.201C-33.798,19.458 -32.923,13.727 -32,8C-5.796,-1.717 -5.796,-1.717 0,0Z" style="fill:rgb(53,170,254);fill-rule:nonzero;"/>
    </g>
    <g transform="matrix(1.39576,0,0,1.39576,781.459,654.054)">
        <path d="M-8.878,-4.154C3.89,4.232 80.048,17.251 82.226,17.194C80.977,22.668 75.421,40.586 74.958,41.631C70.37,51.803 55.194,76.246 49.091,85.591C44.401,84.155 6,61 4.109,60.934C1.362,59.718 -7.503,53.925 -7.503,51.925C-7.359,51.846 -7.047,51.633 -6.612,51.322C-3.753,49.275 4.41,43 5,43C1.273,39.111 -2.671,35.779 -6.938,32.5C-9.298,30.674 -11.653,28.842 -14,27C-14.587,26.542 -15.173,26.085 -15.778,25.613C-17.224,24.455 -18.617,23.233 -20,22L-20,20C-19.442,19.955 -18.884,19.91 -18.309,19.863C-14.907,18.591 -13.214,15.979 -11.063,13.188C-8.647,10.092 -6.336,7.268 -3.246,4.801C-0.741,3.126 -9.619,-1.029 -8.878,-4.154Z" style="fill:rgb(62,176,253);fill-rule:nonzero;"/>
    </g>
    <g transform="matrix(1.39576,0,0,1.39576,206.405,356.757)">
        <path d="M-17.695,-6.3C-6.469,-5.486 65.486,14.6 79.669,18.582C80.979,18.949 82.288,19.317 83.598,19.684C84.253,19.867 84.908,20.051 85.584,20.24C94.001,22.581 102.475,24.705 110.944,26.851C124.585,30.309 138.223,33.78 151.813,37.438C153.563,37.896 153.563,37.896 155.349,38.364C162.483,40.311 168.682,42.151 172.875,48.688C174.423,51.101 177.169,56.707 175,62C172.899,66.056 171.698,69.722 167.847,72.191C161.95,73.198 155.606,70.624 150.313,68.188C148.899,67.548 147.485,66.91 146.07,66.273C145.277,65.915 144.483,65.556 143.665,65.187C138.368,62.828 133.022,60.583 127.688,58.313C116.975,53.738 106.315,49.052 95.679,44.301C86.266,40.102 76.799,36.034 67.318,31.991C58.137,28.067 49.021,24.043 39.999,19.765C34.521,17.191 28.953,14.848 23.375,12.5C22.24,12.021 20.705,11.115 18.692,10.466C5.389,6.183 -27.897,-7.553 -17.695,-6.3Z" style="fill:rgb(249,127,62);fill-rule:nonzero;"/>
    </g>
    <g transform="matrix(1.39576,0,0,1.39576,566.77,106.778)">
        <path d="M0,0C23.669,-0.983 46.99,3.535 67.815,15.099C64.226,16.295 63.283,15.77 59.729,14.688C49.834,12.287 39.79,12.615 29.661,12.653C26.218,12.661 22.777,12.632 19.334,12.601C-9.429,12.509 -38.16,19.574 -61.146,37.63C-63.185,39.099 -71.65,48.033 -74.873,51.442C-77.412,54.136 -79.237,55.201 -81.01,59.164C-94.87,59.164 -106.905,58.099 -121.185,58.099C-121.185,56.099 -121.185,56.099 -119.037,53.802C-114.645,49.639 -110.224,45.516 -105.72,41.476C-104.35,40.247 -102.988,39.009 -101.626,37.771C-74.082,13.878 -35.891,1.62 0,0Z" style="fill:rgb(247,251,252);fill-rule:nonzero;"/>
    </g>
    <g transform="matrix(1.39576,0,0,1.39576,619.821,283.972)">
        <path d="M-24.203,6.145C-22.381,5.124 4.439,-8.482 12.464,-3.567C22.793,2.758 39.93,15.731 49.289,23.085C52.222,25.391 60.515,32.485 71.057,45.894C76.546,52.875 80.522,59.901 83.807,68.147C84.085,68.827 84.364,69.506 84.65,70.206C87.322,77.816 84.733,85.055 81.842,92.179C80.807,94.147 80.807,94.147 78.807,95.147C78.404,94.273 78.404,94.273 77.994,93.382C72.661,82.225 65.88,72.818 57.404,63.897C55.249,61.616 53.201,59.297 51.182,56.897C31.976,34.955 -24.203,6.825 -24.203,6.145Z" style="fill:rgb(32,108,180);fill-rule:nonzero;"/>
    </g>
    <g transform="matrix(1.39576,0,0,1.39576,576.282,623.348)">
        <path d="M-84.282,6.048C-44.34,7.341 -0.859,-2.02 -1.175,-1.366C-3.906,4.285 -44.483,35.407 -45.247,36.132C-57.31,46.142 -104.559,41.433 -116.259,38.302C-115.691,37.817 -102.452,26.279 -98,21C-96.568,19.349 -88,7.7 -88,6C-86.159,6.024 -86.159,6.024 -84.282,6.048Z" style="fill:rgb(45,162,249);fill-rule:nonzero;"/>
    </g>
    <g transform="matrix(1.39576,0,0,1.39576,735.121,632.02)">
        <path d="M0,0C3.306,0.813 33.088,15.096 35.728,16.114C35.54,18.364 17.147,34.911 14.507,36.816C14.186,37.048 37.886,56.796 39.27,57.949C39.27,58.609 26.449,67.939 26.109,68.619C23.878,66.558 20.74,63.663 18.512,61.599C17.886,61.021 17.26,60.443 16.615,59.847C13.07,56.562 9.601,53.223 6.199,49.787C5.481,49.092 4.763,48.397 4.024,47.681C-1.416,42.381 -19.628,19.558 -21.801,16.787C-20.289,12.842 -2.801,-0.213 0,0Z" style="fill:rgb(31,106,175);fill-rule:nonzero;"/>
    </g>
    <g transform="matrix(1.39576,0,0,1.39576,756.335,77.6046)">
        <path d="M0,0C-1.32,0.33 -0.773,3.302 0.364,5.461C3.928,12.61 3.8,18.388 1.34,26.059C-1.106,32.076 -5.236,35.226 -11,38C-18.032,40.59 -30.363,37.653 -31.438,37.169C-34.099,35.686 -38.541,29.615 -39.344,28.92C-41.709,26.194 -41.528,23.231 -41.406,19.758C-40.27,12.044 -36.122,6.175 -30.094,1.406C-20.654,-4.934 -10.224,-4.241 0,0Z" style="fill:rgb(63,175,254);fill-rule:nonzero;"/>
    </g>
    <g transform="matrix(1.39576,0,0,1.39576,626.53,688.948)">
        <path d="M0,0C0.03,1.374 0.03,1.374 0.06,2.775C0.139,6.257 0.39,16.203 0.422,17.694C0.625,27.11 2.838,54.049 4,56C1.065,57.007 -1.873,58.005 -4.813,59C-5.646,59.286 -14,62 -17,62C-16.592,53.92 -16.07,45.898 -15,37.875C-14.033,30.588 -13.436,23.338 -13,16C-19.784,17.357 -41.662,23.532 -44,24C-43.67,20.37 -43.34,16.74 -43,13C-36.307,10.339 -6.755,0 0,0Z" style="fill:rgb(33,108,178);fill-rule:nonzero;"/>
    </g>
    <g transform="matrix(1.39576,0,0,1.39576,746.565,77.6046)">
        <path d="M-0.55,-2.42C6.198,-0.665 8.075,0.259 11.922,2.895C19.458,9.57 23.216,14.951 25,25C25.438,33.768 22.853,41.211 17.359,48.039C12.623,53.053 7.067,57.327 0,58C-0.662,58.083 -1.324,58.167 -2.005,58.253C-7.956,58.696 -7.956,58.696 -10.777,56.815C-12.417,55.127 -13.838,53.383 -15.25,51.5C-15.76,50.863 -16.27,50.226 -16.796,49.57C-20.208,45.247 -23.307,40.808 -26,36C-23.854,36.533 -21.719,37.079 -19.59,37.676C-12.072,39.48 -6.832,38.612 0,35C4.804,31.422 7.349,26.692 9,21C10.085,15.077 8.552,10.007 6.415,6.112C3.636,1.044 -0.165,-2.035 -0.55,-2.42Z" style="fill:rgb(30,108,178);fill-rule:nonzero;"/>
    </g>
    <g transform="matrix(1.39576,0,0,1.39576,217.571,362.34)">
        <path d="M-27.202,-9.304C-22.104,-8.634 162.116,64.869 163.369,64.848C160.558,69.441 156.853,69.845 155.717,70.01C149.724,70.881 142.752,69.186 135.246,67.045C126.492,64.548 -23.48,-5.883 -27.202,-9.304Z" style="fill:rgb(198,84,37);fill-rule:nonzero;"/>
    </g>
    <g transform="matrix(1.39576,0,0,1.39576,-189.903,-193.175)">
        <circle cx="519.706" cy="406.98" r="17.895" style="fill:rgb(14,46,78);"/>
    </g>
    <g transform="matrix(1.32498,0,0,1.34397,-315.047,-203.498)">
        <circle cx="519.706" cy="406.98" r="17.895" style="fill:rgb(14,46,78);"/>
    </g>
    <g transform="matrix(0.372896,0.0928543,-0.0928543,0.372896,143.202,568.111)">
        <g transform="matrix(1,0,0,1,-224,-256)">
            <clipPath id="_clip1">
                <rect x="0" y="0" width="448" height="512"/>
            </clipPath>
            <g clip-path="url(#_clip1)">
                <path d="M438.237,355.927L371.663,317.387L431.111,307.06C436.957,305.685 441.72,301.877 444.569,296.93C447.049,292.623 448.075,287.452 447.093,282.279C444.983,271.164 434.407,264.24 423.472,266.812L338.049,297.927L255.914,256L338.05,214.074L423.473,245.189C434.409,247.761 444.985,240.837 447.094,229.722C449.205,218.607 442.048,207.513 431.113,204.941L371.665,194.614L438.238,156.074C447.778,150.551 450.853,137.982 445.105,128C439.357,118.018 426.965,114.404 417.425,119.926L350.851,158.466L371.656,101.679C374.902,90.897 368.898,79.137 358.243,75.411C347.589,71.686 336.321,77.408 333.075,88.19L317.237,177.925L244.814,219.851L244.814,136L314.399,77.379C322.088,69.169 321.396,56.523 312.851,49.134C304.306,41.743 291.146,42.411 283.457,50.62L244.813,97.08L244.813,20C244.813,8.954 235.495,0 224,0C212.505,0 203.187,8.954 203.187,20L203.187,97.08L164.543,50.62C156.854,42.41 143.694,41.744 135.149,49.134C126.605,56.523 125.913,69.169 133.602,77.379L203.187,136L203.187,219.853L130.764,177.927L114.926,88.191C111.679,77.409 100.411,71.687 89.757,75.412C79.101,79.137 73.098,90.898 76.344,101.68L97.149,158.467L30.576,119.927C21.036,114.404 8.643,118.019 2.896,128.001C-2.851,137.983 0.223,150.552 9.763,156.075L76.337,194.615L16.888,204.943C5.953,207.515 -1.202,218.609 0.907,229.724C3.017,240.838 13.593,247.762 24.529,245.19L109.951,214.075L192.086,256L109.95,297.926L24.527,266.811C13.591,264.239 3.016,271.163 0.905,282.277C-1.204,293.39 5.951,304.486 16.886,307.058L76.335,317.386L9.761,355.926C0.223,361.449 -2.852,374.018 2.896,384C8.644,393.982 21.036,397.597 30.576,392.074L97.15,353.534L76.345,410.32C74.61,416.084 75.517,422.125 78.365,427.071C80.845,431.378 84.798,434.855 89.757,436.588C100.412,440.313 111.68,434.591 114.926,423.809L130.764,334.073L203.187,292.147L203.187,376L133.602,434.621C125.912,442.831 126.605,455.476 135.149,462.866C143.693,470.254 156.854,469.589 164.543,461.379L203.187,414.919L203.187,492C203.187,503.046 212.505,512 224,512C235.495,512 244.813,503.046 244.813,492L244.813,414.919L283.457,461.379C287.568,465.768 293.239,468 298.935,468C303.895,468 308.874,466.306 312.851,462.866C321.396,455.476 322.088,442.831 314.399,434.621L244.813,376L244.813,292.147L317.236,334.073L333.074,423.809C336.32,434.591 347.588,440.313 358.242,436.588C368.895,432.862 374.901,421.101 371.654,410.32L350.849,353.533L417.423,392.073C426.963,397.596 439.356,393.981 445.103,383.999C450.852,374.018 447.778,361.449 438.237,355.927Z" style="fill:rgb(35,158,220);fill-rule:nonzero;"/>
            </g>
        </g>
    </g>
    <g transform="matrix(0.29641,-0.0523058,0.0523058,0.29641,174.625,142.818)">
        <g transform="matrix(1,0,0,1,-224,-256)">
            <clipPath id="_clip2">
                <rect x="0" y="0" width="448" height="512"/>
            </clipPath>
            <g clip-path="url(#_clip2)">
                <path d="M438.237,355.927L371.663,317.387L431.111,307.06C436.957,305.685 441.72,301.877 444.569,296.93C447.049,292.623 448.075,287.452 447.093,282.279C444.983,271.164 434.407,264.24 423.472,266.812L338.049,297.927L255.914,256L338.05,214.074L423.473,245.189C434.409,247.761 444.985,240.837 447.094,229.722C449.205,218.607 442.048,207.513 431.113,204.941L371.665,194.614L438.238,156.074C447.778,150.551 450.853,137.982 445.105,128C439.357,118.018 426.965,114.404 417.425,119.926L350.851,158.466L371.656,101.679C374.902,90.897 368.898,79.137 358.243,75.411C347.589,71.686 336.321,77.408 333.075,88.19L317.237,177.925L244.814,219.851L244.814,136L314.399,77.379C322.088,69.169 321.396,56.523 312.851,49.134C304.306,41.743 291.146,42.411 283.457,50.62L244.813,97.08L244.813,20C244.813,8.954 235.495,0 224,0C212.505,0 203.187,8.954 203.187,20L203.187,97.08L164.543,50.62C156.854,42.41 143.694,41.744 135.149,49.134C126.605,56.523 125.913,69.169 133.602,77.379L203.187,136L203.187,219.853L130.764,177.927L114.926,88.191C111.679,77.409 100.411,71.687 89.757,75.412C79.101,79.137 73.098,90.898 76.344,101.68L97.149,158.467L30.576,119.927C21.036,114.404 8.643,118.019 2.896,128.001C-2.851,137.983 0.223,150.552 9.763,156.075L76.337,194.615L16.888,204.943C5.953,207.515 -1.202,218.609 0.907,229.724C3.017,240.838 13.593,247.762 24.529,245.19L109.951,214.075L192.086,256L109.95,297.926L24.527,266.811C13.591,264.239 3.016,271.163 0.905,282.277C-1.204,293.39 5.951,304.486 16.886,307.058L76.335,317.386L9.761,355.926C0.223,361.449 -2.852,374.018 2.896,384C8.644,393.982 21.036,397.597 30.576,392.074L97.15,353.534L76.345,410.32C74.61,416.084 75.517,422.125 78.365,427.071C80.845,431.378 84.798,434.855 89.757,436.588C100.412,440.313 111.68,434.591 114.926,423.809L130.764,334.073L203.187,292.147L203.187,376L133.602,434.621C125.912,442.831 126.605,455.476 135.149,462.866C143.693,470.254 156.854,469.589 164.543,461.379L203.187,414.919L203.187,492C203.187,503.046 212.505,512 224,512C235.495,512 244.813,503.046 244.813,492L244.813,414.919L283.457,461.379C287.568,465.768 293.239,468 298.935,468C303.895,468 308.874,466.306 312.851,462.866C321.396,455.476 322.088,442.831 314.399,434.621L244.813,376L244.813,292.147L317.236,334.073L333.074,423.809C336.32,434.591 347.588,440.313 358.242,436.588C368.895,432.862 374.901,421.101 371.654,410.32L350.849,353.533L417.423,392.073C426.963,397.596 439.356,393.981 445.103,383.999C450.852,374.018 447.778,361.449 438.237,355.927Z" style="fill:rgb(35,158,220);fill-rule:nonzero;"/>
            </g>
        </g>
    </g>
    <g transform="matrix(0.213568,-0.0363733,0.0363733,0.213568,876.67,397.825)">
        <g transform="matrix(1,0,0,1,-224,-256)">
            <clipPath id="_clip3">
                <rect x="0" y="0" width="448" height="512"/>
            </clipPath>
            <g clip-path="url(#_clip3)">
                <path d="M438.237,355.927L371.663,317.387L431.111,307.06C436.957,305.685 441.72,301.877 444.569,296.93C447.049,292.623 448.075,287.452 447.093,282.279C444.983,271.164 434.407,264.24 423.472,266.812L338.049,297.927L255.914,256L338.05,214.074L423.473,245.189C434.409,247.761 444.985,240.837 447.094,229.722C449.205,218.607 442.048,207.513 431.113,204.941L371.665,194.614L438.238,156.074C447.778,150.551 450.853,137.982 445.105,128C439.357,118.018 426.965,114.404 417.425,119.926L350.851,158.466L371.656,101.679C374.902,90.897 368.898,79.137 358.243,75.411C347.589,71.686 336.321,77.408 333.075,88.19L317.237,177.925L244.814,219.851L244.814,136L314.399,77.379C322.088,69.169 321.396,56.523 312.851,49.134C304.306,41.743 291.146,42.411 283.457,50.62L244.813,97.08L244.813,20C244.813,8.954 235.495,0 224,0C212.505,0 203.187,8.954 203.187,20L203.187,97.08L164.543,50.62C156.854,42.41 143.694,41.744 135.149,49.134C126.605,56.523 125.913,69.169 133.602,77.379L203.187,136L203.187,219.853L130.764,177.927L114.926,88.191C111.679,77.409 100.411,71.687 89.757,75.412C79.101,79.137 73.098,90.898 76.344,101.68L97.149,158.467L30.576,119.927C21.036,114.404 8.643,118.019 2.896,128.001C-2.851,137.983 0.223,150.552 9.763,156.075L76.337,194.615L16.888,204.943C5.953,207.515 -1.202,218.609 0.907,229.724C3.017,240.838 13.593,247.762 24.529,245.19L109.951,214.075L192.086,256L109.95,297.926L24.527,266.811C13.591,264.239 3.016,271.163 0.905,282.277C-1.204,293.39 5.951,304.486 16.886,307.058L76.335,317.386L9.761,355.926C0.223,361.449 -2.852,374.018 2.896,384C8.644,393.982 21.036,397.597 30.576,392.074L97.15,353.534L76.345,410.32C74.61,416.084 75.517,422.125 78.365,427.071C80.845,431.378 84.798,434.855 89.757,436.588C100.412,440.313 111.68,434.591 114.926,423.809L130.764,334.073L203.187,292.147L203.187,376L133.602,434.621C125.912,442.831 126.605,455.476 135.149,462.866C143.693,470.254 156.854,469.589 164.543,461.379L203.187,414.919L203.187,492C203.187,503.046 212.505,512 224,512C235.495,512 244.813,503.046 244.813,492L244.813,414.919L283.457,461.379C287.568,465.768 293.239,468 298.935,468C303.895,468 308.874,466.306 312.851,462.866C321.396,455.476 322.088,442.831 314.399,434.621L244.813,376L244.813,292.147L317.236,334.073L333.074,423.809C336.32,434.591 347.588,440.313 358.242,436.588C368.895,432.862 374.901,421.101 371.654,410.32L350.849,353.533L417.423,392.073C426.963,397.596 439.356,393.981 445.103,383.999C450.852,374.018 447.778,361.449 438.237,355.927Z" style="fill:rgb(35,158,220);fill-rule:nonzero;"/>
            </g>
        </g>
    </g>
</svg>
